<svg xmlns="http://www.w3.org/2000/svg" xmlns:xlink="http://www.w3.org/1999/xlink" style="margin:auto;background:#212832;display:block;z-index:1;position:relative" width="2560" height="1336" preserveAspectRatio="xMidYMid" viewBox="0 0 2560 1336">
<g transform="translate(1280,668) scale(1,1) translate(-1280,-668)"><path d="M-100 912.88C-54.93 907.03 -53.67 905.77 -10.97 905.77S35.24 911.35 78.06 911.35S122.95 920.56 167.1 920.56S213.36 915.35 256.13 915.35S302.29 910.36 345.16 910.36S390.71 909.61 434.19 909.61S479.33 916.24 523.23 916.24S569.37 912.17 612.26 912.17S658.11 903.46 701.29 903.46S748.42 919.16 790.32 919.16S837.7 914.45 879.35 914.45S927.07 897.92 968.39 897.92S1015.19 918.01 1057.42 918.01S1103.16 911.43 1146.45 911.43S1192.43 911.14 1235.48 911.14S1282.65 900.08 1324.52 900.08S1371.56 897.54 1413.55 897.54S1458.6 914.35 1502.58 914.35S1549 919.76 1591.61 919.76S1637.5 927.19 1680.65 927.19S1726.68 910.24 1769.68 910.24S1814.22 896.59 1858.71 896.59S1903.24 908.95 1947.74 908.95S1992.68 921.88 2036.77 921.88S2081.38 908.26 2125.81 908.26S2172.88 904.9 2214.84 904.9S2259.91 928.1 2303.87 928.1S2351.5 924.07 2392.9 924.07S2437.87 904.54 2481.94 904.54S2527.13 912.43 2570.97 912.43S2618.58 915.66 2660 915.66S2706.43 895.42 2749.03 895.42L2660 1336 L-100 1336 Z" fill="#2b3441" stroke-width="0">
  <animate attributeName="d" dur="25s" repeatCount="indefinite" values="M-100 912.88C-54.93 907.03 -53.67 905.77 -10.97 905.77S35.24 911.35 78.06 911.35S122.95 920.56 167.1 920.56S213.36 915.35 256.13 915.35S302.29 910.36 345.16 910.36S390.71 909.61 434.19 909.61S479.33 916.24 523.23 916.24S569.37 912.17 612.26 912.17S658.11 903.46 701.29 903.46S748.42 919.16 790.32 919.16S837.7 914.45 879.35 914.45S927.07 897.92 968.39 897.92S1015.19 918.01 1057.42 918.01S1103.16 911.43 1146.45 911.43S1192.43 911.14 1235.48 911.14S1282.65 900.08 1324.52 900.08S1371.56 897.54 1413.55 897.54S1458.6 914.35 1502.58 914.35S1549 919.76 1591.61 919.76S1637.5 927.19 1680.65 927.19S1726.68 910.24 1769.68 910.24S1814.22 896.59 1858.71 896.59S1903.24 908.95 1947.74 908.95S1992.68 921.88 2036.77 921.88S2081.38 908.26 2125.81 908.26S2172.88 904.9 2214.84 904.9S2259.91 928.1 2303.87 928.1S2351.5 924.07 2392.9 924.07S2437.87 904.54 2481.94 904.54S2527.13 912.43 2570.97 912.43S2618.58 915.66 2660 915.66S2706.43 895.42 2749.03 895.42L2660 1336 L-100 1336 Z;M-100 923.95C-52.28 895.29 -53.28 918.83 -10.97 918.83S33.64 923.31 78.06 923.31S124.09 906.83 167.1 906.83S212.85 915.05 256.13 915.05S302.36 897.44 345.16 897.44S391.73 898.19 434.19 898.19S481.04 920.31 523.23 920.31S569.93 895.87 612.26 895.87S657.07 913.21 701.29 913.21S748.46 920.76 790.32 920.76S835.12 923.7 879.35 923.7S927.13 895.47 968.39 895.47S1013.54 924.78 1057.42 924.78S1104.75 914.66 1146.45 914.66S1191.63 925.17 1235.48 925.17S1280.61 910.55 1324.52 910.55S1371.44 900.59 1413.55 900.59S1459.89 913.07 1502.58 913.07S1547.82 921.44 1591.61 921.44S1639.31 920.05 1680.65 920.05S1727.38 921.43 1769.68 921.43S1814.64 910.47 1858.71 910.47S1905.84 900.08 1947.74 900.08S1992.42 904.39 2036.77 904.39S2081.54 918.43 2125.81 918.43S2172.89 896.33 2214.84 896.33S2259.5 924.45 2303.87 924.45S2348.95 925.2 2392.9 925.2S2440.09 918.9 2481.94 918.9S2528.31 895.73 2570.97 895.73S2618.23 922.11 2660 922.11S2705.29 924.07 2749.03 924.07L2660 1336 L-100 1336 Z;M-100 912.88C-54.93 907.03 -53.67 905.77 -10.97 905.77S35.24 911.35 78.06 911.35S122.95 920.56 167.1 920.56S213.36 915.35 256.13 915.35S302.29 910.36 345.16 910.36S390.71 909.61 434.19 909.61S479.33 916.24 523.23 916.24S569.37 912.17 612.26 912.17S658.11 903.46 701.29 903.46S748.42 919.16 790.32 919.16S837.7 914.45 879.35 914.45S927.07 897.92 968.39 897.92S1015.19 918.01 1057.42 918.01S1103.16 911.43 1146.45 911.43S1192.43 911.14 1235.48 911.14S1282.65 900.08 1324.52 900.08S1371.56 897.54 1413.55 897.54S1458.6 914.35 1502.58 914.35S1549 919.76 1591.61 919.76S1637.5 927.19 1680.65 927.19S1726.68 910.24 1769.68 910.24S1814.22 896.59 1858.71 896.59S1903.24 908.95 1947.74 908.95S1992.68 921.88 2036.77 921.88S2081.38 908.26 2125.81 908.26S2172.88 904.9 2214.84 904.9S2259.91 928.1 2303.87 928.1S2351.5 924.07 2392.9 924.07S2437.87 904.54 2481.94 904.54S2527.13 912.43 2570.97 912.43S2618.58 915.66 2660 915.66S2706.43 895.42 2749.03 895.42L2660 1336 L-100 1336 Z"></animate>
  <animateTransform attributeName="transform" type="translate" dur="25s" begin="0s" repeatCount="indefinite" values="0;10;0" calcMode="spline" keySplines="0.3 0 0.7 1;0.3 0 0.7 1"></animateTransform>
</path><path d="M-100 930.06C-52.05 955.44 -53.69 955.91 -8.61 955.91S40.08 948.64 82.78 948.64S130.04 938.01 174.17 938.01S222.01 957.61 265.56 957.61S311.41 964.77 356.95 964.77S403.3 954.43 448.34 954.43S494.95 960.12 539.74 960.12S586.82 955.48 631.13 955.48S679.25 936.47 722.52 936.47S768.73 966.62 813.91 966.62S862.59 960.61 905.3 960.61S953.37 957.12 996.69 957.12S1043.74 940.71 1088.08 940.71S1134.38 936.59 1179.47 936.59S1227.51 945.88 1270.86 945.88S1318.31 937.48 1362.25 937.48S1410 960.52 1453.64 960.52S1499.9 950.99 1545.03 950.99S1593.73 962.91 1636.42 962.91S1684.89 966.83 1727.81 966.83S1774.2 948.31 1819.21 948.31S1867.9 947.5 1910.6 947.5S1957.44 962.26 2001.99 962.26S2049.12 949.77 2093.38 949.77S2141.5 936.22 2184.77 936.22S2231.09 957.41 2276.16 957.41S2322.4 943.16 2367.55 943.16S2414.53 947.48 2458.94 947.48S2505.69 950.56 2550.33 950.56S2598.16 960.01 2641.72 960.01S2688.84 939.64 2733.11 939.64L2660 1336 L-100 1336 Z" fill="#293b54" stroke-width="0">
  <animate attributeName="d" dur="22.5s" repeatCount="indefinite" values="M-100 930.06C-52.05 955.44 -53.69 955.91 -8.61 955.91S40.08 948.64 82.78 948.64S130.04 938.01 174.17 938.01S222.01 957.61 265.56 957.61S311.41 964.77 356.95 964.77S403.3 954.43 448.34 954.43S494.95 960.12 539.74 960.12S586.82 955.48 631.13 955.48S679.25 936.47 722.52 936.47S768.73 966.62 813.91 966.62S862.59 960.61 905.3 960.61S953.37 957.12 996.69 957.12S1043.74 940.71 1088.08 940.71S1134.38 936.59 1179.47 936.59S1227.51 945.88 1270.86 945.88S1318.31 937.48 1362.25 937.48S1410 960.52 1453.64 960.52S1499.9 950.99 1545.03 950.99S1593.73 962.91 1636.42 962.91S1684.89 966.83 1727.81 966.83S1774.2 948.31 1819.21 948.31S1867.9 947.5 1910.6 947.5S1957.44 962.26 2001.99 962.26S2049.12 949.77 2093.38 949.77S2141.5 936.22 2184.77 936.22S2231.09 957.41 2276.16 957.41S2322.4 943.16 2367.55 943.16S2414.53 947.48 2458.94 947.48S2505.69 950.56 2550.33 950.56S2598.16 960.01 2641.72 960.01S2688.84 939.64 2733.11 939.64L2660 1336 L-100 1336 Z;M-100 930.05C-54.05 929.63 -54.03 945.2 -8.61 945.2S37.79 955.38 82.78 955.38S131.3 953.25 174.17 953.25S222.07 928.69 265.56 928.69S313.33 939.94 356.95 939.94S403.03 931.44 448.34 931.44S495.38 943.64 539.74 943.64S587.58 943.74 631.13 943.74S679 959.03 722.52 959.03S771.21 940.2 813.91 940.2S861.14 955.72 905.3 955.72S952.9 948.51 996.69 948.51S1042.55 958.64 1088.08 958.64S1135.71 959.11 1179.47 959.11S1227.26 939.28 1270.86 939.28S1319.45 938.39 1362.25 938.39S1408.32 967.59 1453.64 967.59S1499.52 935.4 1545.03 935.4S1593.45 939.86 1636.42 939.86S1684.78 934.95 1727.81 934.95S1776.26 944.35 1819.21 944.35S1866.77 947.16 1910.6 947.16S1958.43 949.59 2001.99 949.59S2050.61 939.8 2093.38 939.8S2141.92 941.06 2184.77 941.06S2230.85 949.01 2276.16 949.01S2322.85 943.28 2367.55 943.28S2414.44 933.43 2458.94 933.43S2507.68 930.78 2550.33 930.78S2597.36 957.42 2641.72 957.42S2688.9 948.31 2733.11 948.31L2660 1336 L-100 1336 Z;M-100 930.06C-52.05 955.44 -53.69 955.91 -8.61 955.91S40.08 948.64 82.78 948.64S130.04 938.01 174.17 938.01S222.01 957.61 265.56 957.61S311.41 964.77 356.95 964.77S403.3 954.43 448.34 954.43S494.95 960.12 539.74 960.12S586.82 955.48 631.13 955.48S679.25 936.47 722.52 936.47S768.73 966.62 813.91 966.62S862.59 960.61 905.3 960.61S953.37 957.12 996.69 957.12S1043.74 940.71 1088.08 940.71S1134.38 936.59 1179.47 936.59S1227.51 945.88 1270.86 945.88S1318.31 937.48 1362.25 937.48S1410 960.52 1453.64 960.52S1499.9 950.99 1545.03 950.99S1593.73 962.91 1636.42 962.91S1684.89 966.83 1727.81 966.83S1774.2 948.31 1819.21 948.31S1867.9 947.5 1910.6 947.5S1957.44 962.26 2001.99 962.26S2049.12 949.77 2093.38 949.77S2141.5 936.22 2184.77 936.22S2231.09 957.41 2276.16 957.41S2322.4 943.16 2367.55 943.16S2414.53 947.48 2458.94 947.48S2505.69 950.56 2550.33 950.56S2598.16 960.01 2641.72 960.01S2688.84 939.64 2733.11 939.64L2660 1336 L-100 1336 Z"></animate>
  <animateTransform attributeName="transform" type="translate" dur="22.5s" begin="-2.25s" repeatCount="indefinite" values="0;10;0" calcMode="spline" keySplines="0.3 0 0.7 1;0.3 0 0.7 1"></animateTransform>
</path><path d="M-100 962.95C-51.04 964.62 -51.24 988.39 -6.12 988.39S41.27 968.22 87.76 968.22S137.02 1003.06 181.63 1003.06S230.06 979.86 275.51 979.86S324.13 980.59 369.39 980.59S419.27 983.98 463.27 983.98S513.53 976.79 557.14 976.79S604.85 964.24 651.02 964.24S698.44 978.78 744.9 978.78S795.11 993.9 838.78 993.9S885.92 995.25 932.65 995.25S981.93 992.75 1026.53 992.75S1074.05 982.86 1120.41 982.86S1170.22 988.29 1214.29 988.29S1263.9 996.6 1308.16 996.6S1355.34 991.64 1402.04 991.64S1449.43 995.73 1495.92 995.73S1543.06 972.14 1589.8 972.14S1637.59 1006.54 1683.67 1006.54S1733.73 982.93 1777.55 982.93S1826.37 988.25 1871.43 988.25S1920.96 994.04 1965.31 994.04S2015.34 998.16 2059.18 998.16S2107.7 978.29 2153.06 978.29S2200.84 995.96 2246.94 995.96S2295.36 965.41 2340.82 965.41S2390.13 985.63 2434.69 985.63S2484.01 976.12 2528.57 976.12S2577.64 975.52 2622.45 975.52S2670.47 966.74 2716.33 966.74L2660 1336 L-100 1336 Z" fill="#284168" stroke-width="0">
  <animate attributeName="d" dur="20s" repeatCount="indefinite" values="M-100 962.95C-51.04 964.62 -51.24 988.39 -6.12 988.39S41.27 968.22 87.76 968.22S137.02 1003.06 181.63 1003.06S230.06 979.86 275.51 979.86S324.13 980.59 369.39 980.59S419.27 983.98 463.27 983.98S513.53 976.79 557.14 976.79S604.85 964.24 651.02 964.24S698.44 978.78 744.9 978.78S795.11 993.9 838.78 993.9S885.92 995.25 932.65 995.25S981.93 992.75 1026.53 992.75S1074.05 982.86 1120.41 982.86S1170.22 988.29 1214.29 988.29S1263.9 996.6 1308.16 996.6S1355.34 991.64 1402.04 991.64S1449.43 995.73 1495.92 995.73S1543.06 972.14 1589.8 972.14S1637.59 1006.54 1683.67 1006.54S1733.73 982.93 1777.55 982.93S1826.37 988.25 1871.43 988.25S1920.96 994.04 1965.31 994.04S2015.34 998.16 2059.18 998.16S2107.7 978.29 2153.06 978.29S2200.84 995.96 2246.94 995.96S2295.36 965.41 2340.82 965.41S2390.13 985.63 2434.69 985.63S2484.01 976.12 2528.57 976.12S2577.64 975.52 2622.45 975.52S2670.47 966.74 2716.33 966.74L2660 1336 L-100 1336 Z;M-100 979.62C-51.98 975.82 -49.92 992.76 -6.12 992.76S42.19 974.89 87.76 974.89S137.3 977.15 181.63 977.15S229.82 977.05 275.51 977.05S324.36 1002.27 369.39 1002.27S416.68 962.21 463.27 962.21S511.55 1003.5 557.14 1003.5S604.82 977.65 651.02 977.65S699.91 978.9 744.9 978.9S793.93 992.35 838.78 992.35S887.48 1004.61 932.65 1004.61S981.89 981.33 1026.53 981.33S1075.95 1000.78 1120.41 1000.78S1167.48 966.4 1214.29 966.4S1261.86 1001.24 1308.16 1001.24S1357.75 991.43 1402.04 991.43S1451.56 966.86 1495.92 966.86S1543.07 971.71 1589.8 971.71S1636.79 979.8 1683.67 979.8S1733.19 970.79 1777.55 970.79S1827.06 999.47 1871.43 999.47S1920.63 972.77 1965.31 972.77S2014.22 1000.24 2059.18 1000.24S2108.24 993.87 2153.06 993.87S2202.3 993.03 2246.94 993.03S2295.11 990.37 2340.82 990.37S2388.4 987.21 2434.69 987.21S2481.88 973.08 2528.57 973.08S2575.99 991.72 2622.45 991.72S2669.47 979.66 2716.33 979.66L2660 1336 L-100 1336 Z;M-100 962.95C-51.04 964.62 -51.24 988.39 -6.12 988.39S41.27 968.22 87.76 968.22S137.02 1003.06 181.63 1003.06S230.06 979.86 275.51 979.86S324.13 980.59 369.39 980.59S419.27 983.98 463.27 983.98S513.53 976.79 557.14 976.79S604.85 964.24 651.02 964.24S698.44 978.78 744.9 978.78S795.11 993.9 838.78 993.9S885.92 995.25 932.65 995.25S981.93 992.75 1026.53 992.75S1074.05 982.86 1120.41 982.86S1170.22 988.29 1214.29 988.29S1263.9 996.6 1308.16 996.6S1355.34 991.64 1402.04 991.64S1449.43 995.73 1495.92 995.73S1543.06 972.14 1589.8 972.14S1637.59 1006.54 1683.67 1006.54S1733.73 982.93 1777.55 982.93S1826.37 988.25 1871.43 988.25S1920.96 994.04 1965.31 994.04S2015.34 998.16 2059.18 998.16S2107.7 978.29 2153.06 978.29S2200.84 995.96 2246.94 995.96S2295.36 965.41 2340.82 965.41S2390.13 985.63 2434.69 985.63S2484.01 976.12 2528.57 976.12S2577.64 975.52 2622.45 975.52S2670.47 966.74 2716.33 966.74L2660 1336 L-100 1336 Z"></animate>
  <animateTransform attributeName="transform" type="translate" dur="20s" begin="-4s" repeatCount="indefinite" values="0;10;0" calcMode="spline" keySplines="0.3 0 0.7 1;0.3 0 0.7 1"></animateTransform>
</path><path d="M-100 1026.68C-50.61 1012.92 -50.47 1040.13 -3.5 1040.13S45.02 1003.42 93.01 1003.42S144.5 1027.7 189.51 1027.7S238.84 1014.37 286.01 1014.37S336.7 1016.22 382.52 1016.22S432.47 1009.44 479.02 1009.44S528.24 1017.08 575.52 1017.08S626.57 1010.72 672.03 1010.72S720.43 1034.91 768.53 1034.91S820.01 995.36 865.03 995.36S914.6 1046.16 961.54 1046.16S1013.06 1014.87 1058.04 1014.87S1109.58 1024.48 1154.55 1024.48S1203.12 1022.47 1251.05 1022.47S1301.41 1020.47 1347.55 1020.47S1397 1018.16 1444.06 1018.16S1494.72 1027.81 1540.56 1027.81S1591.89 995.56 1637.06 995.56S1688.05 1044.42 1733.57 1044.42S1782.65 1016.58 1830.07 1016.58S1880.4 1035.67 1926.57 1035.67S1976.63 1008.21 2023.08 1008.21S2073.14 1045.07 2119.58 1045.07S2168.29 1023.47 2216.08 1023.47S2264.4 1011.54 2312.59 1011.54S2361.64 1021.55 2409.09 1021.55S2459.49 1026.91 2505.59 1026.91S2554.15 1025.42 2602.1 1025.42S2653.4 1024.09 2698.6 1024.09L2660 1336 L-100 1336 Z" fill="#27467d" stroke-width="0">
  <animate attributeName="d" dur="17.5s" repeatCount="indefinite" values="M-100 1026.68C-50.61 1012.92 -50.47 1040.13 -3.5 1040.13S45.02 1003.42 93.01 1003.42S144.5 1027.7 189.51 1027.7S238.84 1014.37 286.01 1014.37S336.7 1016.22 382.52 1016.22S432.47 1009.44 479.02 1009.44S528.24 1017.08 575.52 1017.08S626.57 1010.72 672.03 1010.72S720.43 1034.91 768.53 1034.91S820.01 995.36 865.03 995.36S914.6 1046.16 961.54 1046.16S1013.06 1014.87 1058.04 1014.87S1109.58 1024.48 1154.55 1024.48S1203.12 1022.47 1251.05 1022.47S1301.41 1020.47 1347.55 1020.47S1397 1018.16 1444.06 1018.16S1494.72 1027.81 1540.56 1027.81S1591.89 995.56 1637.06 995.56S1688.05 1044.42 1733.57 1044.42S1782.65 1016.58 1830.07 1016.58S1880.4 1035.67 1926.57 1035.67S1976.63 1008.21 2023.08 1008.21S2073.14 1045.07 2119.58 1045.07S2168.29 1023.47 2216.08 1023.47S2264.4 1011.54 2312.59 1011.54S2361.64 1021.55 2409.09 1021.55S2459.49 1026.91 2505.59 1026.91S2554.15 1025.42 2602.1 1025.42S2653.4 1024.09 2698.6 1024.09L2660 1336 L-100 1336 Z;M-100 1019.44C-50.1 1014.11 -51.17 1041.95 -3.5 1041.95S46.27 996.68 93.01 996.68S143.6 1035.23 189.51 1035.23S238.17 1013.22 286.01 1013.22S336.81 1042.22 382.52 1042.22S433.91 1016.6 479.02 1016.6S529.27 1038.96 575.52 1038.96S624.93 1012.11 672.03 1012.11S722.89 1006.65 768.53 1006.65S819.11 1025.83 865.03 1025.83S915.48 1023.2 961.54 1023.2S1012.25 1023.72 1058.04 1023.72S1109.32 1028.39 1154.55 1028.39S1205.77 996.89 1251.05 996.89S1302.63 1026.25 1347.55 1026.25S1397.27 1019.38 1444.06 1019.38S1493.59 1020.29 1540.56 1020.29S1592.09 1001.92 1637.06 1001.92S1688.56 1037.67 1733.57 1037.67S1783.77 1023.77 1830.07 1023.77S1879.01 999.95 1926.57 999.95S1976.87 1011.38 2023.08 1011.38S2071.89 1021.68 2119.58 1021.68S2168.58 1022.88 2216.08 1022.88S2265.92 1030.04 2312.59 1030.04S2361.85 1003.42 2409.09 1003.42S2459.85 1040.85 2505.59 1040.85S2555 1024.15 2602.1 1024.15S2650.49 1036.96 2698.6 1036.96L2660 1336 L-100 1336 Z;M-100 1026.68C-50.61 1012.92 -50.47 1040.13 -3.5 1040.13S45.02 1003.42 93.01 1003.42S144.5 1027.7 189.51 1027.7S238.84 1014.37 286.01 1014.37S336.7 1016.22 382.52 1016.22S432.47 1009.44 479.02 1009.44S528.24 1017.08 575.52 1017.08S626.57 1010.72 672.03 1010.72S720.43 1034.91 768.53 1034.91S820.01 995.36 865.03 995.36S914.6 1046.16 961.54 1046.16S1013.06 1014.87 1058.04 1014.87S1109.58 1024.48 1154.55 1024.48S1203.12 1022.47 1251.05 1022.47S1301.41 1020.47 1347.55 1020.47S1397 1018.16 1444.06 1018.16S1494.72 1027.81 1540.56 1027.81S1591.89 995.56 1637.06 995.56S1688.05 1044.42 1733.57 1044.42S1782.65 1016.58 1830.07 1016.58S1880.4 1035.67 1926.57 1035.67S1976.63 1008.21 2023.08 1008.21S2073.14 1045.07 2119.58 1045.07S2168.29 1023.47 2216.08 1023.47S2264.4 1011.54 2312.59 1011.54S2361.64 1021.55 2409.09 1021.55S2459.49 1026.91 2505.59 1026.91S2554.15 1025.42 2602.1 1025.42S2653.4 1024.09 2698.6 1024.09L2660 1336 L-100 1336 Z"></animate>
  <animateTransform attributeName="transform" type="translate" dur="17.5s" begin="-5.25s" repeatCount="indefinite" values="0;10;0" calcMode="spline" keySplines="0.3 0 0.7 1;0.3 0 0.7 1"></animateTransform>
</path><path d="M-100 1039.36C-47.07 1028.89 -49.38 1086.6 -0.72 1086.6S49.1 1039.37 98.56 1039.37S148.26 1084.35 197.84 1084.35S248.01 1034.89 297.12 1034.89S346.83 1065.1 396.4 1065.1S448.32 1040.47 495.68 1040.47S547.44 1073.82 594.96 1073.82S646.55 1061.77 694.24 1061.77S744.91 1076.93 793.53 1076.93S844.01 1035.08 892.81 1035.08S945.45 1075.62 992.09 1075.62S1042.34 1039.38 1091.37 1039.38S1142.97 1062.69 1190.65 1062.69S1241.73 1055.35 1289.93 1055.35S1339.62 1069.03 1389.21 1069.03S1441.09 1057.14 1488.49 1057.14S1541.47 1065.73 1587.77 1065.73S1639.34 1050.51 1687.05 1050.51S1738.21 1088.18 1786.33 1088.18S1836.16 1051.63 1885.61 1051.63S1937.65 1053.08 1984.89 1053.08S2037.46 1085.94 2084.17 1085.94S2134.65 1062.95 2183.45 1062.95S2234.93 1053.05 2282.73 1053.05S2333.5 1081.83 2382.01 1081.83S2433.76 1058.31 2481.29 1058.31S2533.22 1058.7 2580.58 1058.7S2630.25 1083.4 2679.86 1083.4L2660 1336 L-100 1336 Z" fill="#2a4b91" stroke-width="0">
  <animate attributeName="d" dur="15s" repeatCount="indefinite" values="M-100 1039.36C-47.07 1028.89 -49.38 1086.6 -0.72 1086.6S49.1 1039.37 98.56 1039.37S148.26 1084.35 197.84 1084.35S248.01 1034.89 297.12 1034.89S346.83 1065.1 396.4 1065.1S448.32 1040.47 495.68 1040.47S547.44 1073.82 594.96 1073.82S646.55 1061.77 694.24 1061.77S744.91 1076.93 793.53 1076.93S844.01 1035.08 892.81 1035.08S945.45 1075.62 992.09 1075.62S1042.34 1039.38 1091.37 1039.38S1142.97 1062.69 1190.65 1062.69S1241.73 1055.35 1289.93 1055.35S1339.62 1069.03 1389.21 1069.03S1441.09 1057.14 1488.49 1057.14S1541.47 1065.73 1587.77 1065.73S1639.34 1050.51 1687.05 1050.51S1738.21 1088.18 1786.33 1088.18S1836.16 1051.63 1885.61 1051.63S1937.65 1053.08 1984.89 1053.08S2037.46 1085.94 2084.17 1085.94S2134.65 1062.95 2183.45 1062.95S2234.93 1053.05 2282.73 1053.05S2333.5 1081.83 2382.01 1081.83S2433.76 1058.31 2481.29 1058.31S2533.22 1058.7 2580.58 1058.7S2630.25 1083.4 2679.86 1083.4L2660 1336 L-100 1336 Z;M-100 1041.78C-50.32 1055.76 -47.36 1067.23 -0.72 1067.23S51.11 1042.11 98.56 1042.11S150.36 1078.22 197.84 1078.22S250.22 1040.12 297.12 1040.12S346.99 1071.92 396.4 1071.92S446.8 1057.81 495.68 1057.81S547.03 1070.23 594.96 1070.23S646.68 1059.68 694.24 1059.68S744.39 1068.9 793.53 1068.9S844.53 1047.19 892.81 1047.19S944.05 1057.41 992.09 1057.41S1044.52 1046.67 1091.37 1046.67S1142.52 1060.19 1190.65 1060.19S1243.54 1030.4 1289.93 1030.4S1341.8 1072.06 1389.21 1072.06S1441.8 1031.59 1488.49 1031.59S1540.95 1068.82 1587.77 1068.82S1639.34 1055.71 1687.05 1055.71S1737.47 1081.29 1786.33 1081.29S1836.77 1030.85 1885.61 1030.85S1935.75 1083.33 1984.89 1083.33S2036.03 1061.12 2084.17 1061.12S2136.15 1070.93 2183.45 1070.93S2235.94 1035.78 2282.73 1035.78S2332.58 1087.29 2382.01 1087.29S2432.78 1030.59 2481.29 1030.59S2532.75 1082.36 2580.58 1082.36S2630.46 1080.25 2679.86 1080.25L2660 1336 L-100 1336 Z;M-100 1039.36C-47.07 1028.89 -49.38 1086.6 -0.72 1086.6S49.1 1039.37 98.56 1039.37S148.26 1084.35 197.84 1084.35S248.01 1034.89 297.12 1034.89S346.83 1065.1 396.4 1065.1S448.32 1040.47 495.68 1040.47S547.44 1073.82 594.96 1073.82S646.55 1061.77 694.24 1061.77S744.91 1076.93 793.53 1076.93S844.01 1035.08 892.81 1035.08S945.45 1075.62 992.09 1075.62S1042.34 1039.38 1091.37 1039.38S1142.97 1062.69 1190.65 1062.69S1241.73 1055.35 1289.93 1055.35S1339.62 1069.03 1389.21 1069.03S1441.09 1057.14 1488.49 1057.14S1541.47 1065.73 1587.77 1065.73S1639.34 1050.51 1687.05 1050.51S1738.21 1088.18 1786.33 1088.18S1836.16 1051.63 1885.61 1051.63S1937.65 1053.08 1984.89 1053.08S2037.46 1085.94 2084.17 1085.94S2134.65 1062.95 2183.45 1062.95S2234.93 1053.05 2282.73 1053.05S2333.5 1081.83 2382.01 1081.83S2433.76 1058.31 2481.29 1058.31S2533.22 1058.7 2580.58 1058.7S2630.25 1083.4 2679.86 1083.4L2660 1336 L-100 1336 Z"></animate>
  <animateTransform attributeName="transform" type="translate" dur="15s" begin="-6s" repeatCount="indefinite" values="0;10;0" calcMode="spline" keySplines="0.3 0 0.7 1;0.3 0 0.7 1"></animateTransform>
</path><path d="M-100 1071.65C-48.11 1063.3 -47.2 1117.99 2.22 1117.99S54.32 1088.55 104.44 1088.55S158.77 1106.55 206.67 1106.55S259.88 1077.98 308.89 1077.98S361.28 1105.05 411.11 1105.05S463.23 1085.48 513.33 1085.48S566.73 1101.61 615.56 1101.61S668.26 1069 717.78 1069S770.9 1111.79 820 1111.79S872.41 1062.36 922.22 1062.36S975.03 1077.44 1024.44 1077.44S1075.84 1072.46 1126.67 1072.46S1180.32 1070.55 1228.89 1070.55S1282.71 1092.69 1331.11 1092.69S1382.51 1089.97 1433.33 1089.97S1486.52 1094.1 1535.56 1094.1S1589.23 1109.29 1637.78 1109.29S1689.66 1096.25 1740 1096.25S1792.03 1105.48 1842.22 1105.48S1893.85 1091.84 1944.44 1091.84S1997.28 1078.29 2046.67 1078.29S2098.71 1093.11 2148.89 1093.11S2202.95 1128.05 2251.11 1128.05S2302.92 1088.16 2353.33 1088.16S2407.37 1107.94 2455.56 1107.94S2507.33 1075.99 2557.78 1075.99S2611.67 1098.07 2660 1098.07S2711.12 1063.04 2762.22 1063.04L2660 1336 L-100 1336 Z" fill="#3150a6" stroke-width="0">
  <animate attributeName="d" dur="12.5s" repeatCount="indefinite" values="M-100 1071.65C-48.11 1063.3 -47.2 1117.99 2.22 1117.99S54.32 1088.55 104.44 1088.55S158.77 1106.55 206.67 1106.55S259.88 1077.98 308.89 1077.98S361.28 1105.05 411.11 1105.05S463.23 1085.48 513.33 1085.48S566.73 1101.61 615.56 1101.61S668.26 1069 717.78 1069S770.9 1111.79 820 1111.79S872.41 1062.36 922.22 1062.36S975.03 1077.44 1024.44 1077.44S1075.84 1072.46 1126.67 1072.46S1180.32 1070.55 1228.89 1070.55S1282.71 1092.69 1331.11 1092.69S1382.51 1089.97 1433.33 1089.97S1486.52 1094.1 1535.56 1094.1S1589.23 1109.29 1637.78 1109.29S1689.66 1096.25 1740 1096.25S1792.03 1105.48 1842.22 1105.48S1893.85 1091.84 1944.44 1091.84S1997.28 1078.29 2046.67 1078.29S2098.71 1093.11 2148.89 1093.11S2202.95 1128.05 2251.11 1128.05S2302.92 1088.16 2353.33 1088.16S2407.37 1107.94 2455.56 1107.94S2507.33 1075.99 2557.78 1075.99S2611.67 1098.07 2660 1098.07S2711.12 1063.04 2762.22 1063.04L2660 1336 L-100 1336 Z;M-100 1075.24C-48.19 1081.22 -48.88 1123.43 2.22 1123.43S54.23 1123.98 104.44 1123.98S158.8 1105.96 206.67 1105.96S260.59 1092.22 308.89 1092.22S363.22 1095.55 411.11 1095.55S462.57 1073.51 513.33 1073.51S567.14 1113.96 615.56 1113.96S668.35 1062.5 717.78 1062.5S771.82 1085.98 820 1085.98S872.7 1084.8 922.22 1084.8S975.18 1116.7 1024.44 1116.7S1078.65 1084.38 1126.67 1084.38S1180.17 1114.42 1228.89 1114.42S1280.17 1064.06 1331.11 1064.06S1384.51 1113.54 1433.33 1113.54S1485.07 1073.12 1535.56 1073.12S1588 1098.74 1637.78 1098.74S1689.73 1092.97 1740 1092.97S1791.85 1122.86 1842.22 1122.86S1893.91 1068.56 1944.44 1068.56S1998.86 1115.08 2046.67 1115.08S2099.53 1082.15 2148.89 1082.15S2201.98 1105.46 2251.11 1105.46S2304.81 1091.03 2353.33 1091.03S2406.92 1124.15 2455.56 1124.15S2507.54 1067.16 2557.78 1067.16S2609.04 1119.82 2660 1119.82S2711.25 1123.69 2762.22 1123.69L2660 1336 L-100 1336 Z;M-100 1071.65C-48.11 1063.3 -47.2 1117.99 2.22 1117.99S54.32 1088.55 104.44 1088.55S158.77 1106.55 206.67 1106.55S259.88 1077.98 308.89 1077.98S361.28 1105.05 411.11 1105.05S463.23 1085.48 513.33 1085.48S566.73 1101.61 615.56 1101.61S668.26 1069 717.78 1069S770.9 1111.79 820 1111.79S872.41 1062.36 922.22 1062.36S975.03 1077.44 1024.44 1077.44S1075.84 1072.46 1126.67 1072.46S1180.32 1070.55 1228.89 1070.55S1282.71 1092.69 1331.11 1092.69S1382.51 1089.97 1433.33 1089.97S1486.52 1094.1 1535.56 1094.1S1589.23 1109.29 1637.78 1109.29S1689.66 1096.25 1740 1096.25S1792.03 1105.48 1842.22 1105.48S1893.85 1091.84 1944.44 1091.84S1997.28 1078.29 2046.67 1078.29S2098.71 1093.11 2148.89 1093.11S2202.95 1128.05 2251.11 1128.05S2302.92 1088.16 2353.33 1088.16S2407.37 1107.94 2455.56 1107.94S2507.33 1075.99 2557.78 1075.99S2611.67 1098.07 2660 1098.07S2711.12 1063.04 2762.22 1063.04L2660 1336 L-100 1336 Z"></animate>
  <animateTransform attributeName="transform" type="translate" dur="12.5s" begin="-6.25s" repeatCount="indefinite" values="0;10;0" calcMode="spline" keySplines="0.3 0 0.7 1;0.3 0 0.7 1"></animateTransform>
</path><path d="M-100 1118.05C-46.93 1122.36 -44.37 1145.32 5.34 1145.32S61.06 1114.57 110.69 1114.57S165.54 1111.72 216.03 1111.72S270.16 1124.98 321.37 1124.98S374.26 1140.53 426.72 1140.53S480.34 1116.01 532.06 1116.01S587.28 1162.53 637.4 1162.53S692.2 1097.08 742.75 1097.08S797.16 1157.41 848.09 1157.41S901.97 1119.88 953.44 1119.88S1007.21 1136.37 1058.78 1136.37S1112.44 1095.7 1164.12 1095.7S1217.08 1136.22 1269.47 1136.22S1325.29 1097.54 1374.81 1097.54S1429.7 1142.78 1480.15 1142.78S1534.23 1103.1 1585.5 1103.1S1640.97 1158.2 1690.84 1158.2S1745.06 1160.69 1796.18 1160.69S1848.95 1150.81 1901.53 1150.81S1955.73 1118.82 2006.87 1118.82S2060.2 1155.43 2112.21 1155.43S2165.37 1120.13 2217.56 1120.13S2270.52 1163.75 2322.9 1163.75S2378.32 1095.65 2428.24 1095.65S2483.53 1140.41 2533.59 1140.41S2587.34 1099.97 2638.93 1099.97S2693.36 1162.2 2744.27 1162.2L2660 1336 L-100 1336 Z" fill="#3c53ba" stroke-width="0">
  <animate attributeName="d" dur="10s" repeatCount="indefinite" values="M-100 1118.05C-46.93 1122.36 -44.37 1145.32 5.34 1145.32S61.06 1114.57 110.69 1114.57S165.54 1111.72 216.03 1111.72S270.16 1124.98 321.37 1124.98S374.26 1140.53 426.72 1140.53S480.34 1116.01 532.06 1116.01S587.28 1162.53 637.4 1162.53S692.2 1097.08 742.75 1097.08S797.16 1157.41 848.09 1157.41S901.97 1119.88 953.44 1119.88S1007.21 1136.37 1058.78 1136.37S1112.44 1095.7 1164.12 1095.7S1217.08 1136.22 1269.47 1136.22S1325.29 1097.54 1374.81 1097.54S1429.7 1142.78 1480.15 1142.78S1534.23 1103.1 1585.5 1103.1S1640.97 1158.2 1690.84 1158.2S1745.06 1160.69 1796.18 1160.69S1848.95 1150.81 1901.53 1150.81S1955.73 1118.82 2006.87 1118.82S2060.2 1155.43 2112.21 1155.43S2165.37 1120.13 2217.56 1120.13S2270.52 1163.75 2322.9 1163.75S2378.32 1095.65 2428.24 1095.65S2483.53 1140.41 2533.59 1140.41S2587.34 1099.97 2638.93 1099.97S2693.36 1162.2 2744.27 1162.2L2660 1336 L-100 1336 Z;M-100 1155.84C-47.3 1167.55 -46.52 1138.6 5.34 1138.6S60.21 1098.25 110.69 1098.25S164.8 1139.05 216.03 1139.05S270.19 1112.87 321.37 1112.87S376.56 1136.87 426.72 1136.87S481.07 1140.15 532.06 1140.15S586.61 1140.2 637.4 1140.2S690.66 1098.27 742.75 1098.27S797.47 1140.86 848.09 1140.86S901.56 1105.01 953.44 1105.01S1007.66 1156.42 1058.78 1156.42S1114.05 1113.53 1164.12 1113.53S1217.4 1147.44 1269.47 1147.44S1325 1112.48 1374.81 1112.48S1428.95 1109.97 1480.15 1109.97S1533.88 1115.26 1585.5 1115.26S1641.08 1156.12 1690.84 1156.12S1746.52 1164.02 1796.18 1164.02S1849.21 1136.86 1901.53 1136.86S1956.04 1098.06 2006.87 1098.06S2061.45 1141.21 2112.21 1141.21S2165.76 1152.74 2217.56 1152.74S2271.41 1151.47 2322.9 1151.47S2377.96 1124.82 2428.24 1124.82S2483.46 1148.56 2533.59 1148.56S2587.15 1105.34 2638.93 1105.34S2693.65 1124.07 2744.27 1124.07L2660 1336 L-100 1336 Z;M-100 1118.05C-46.93 1122.36 -44.37 1145.32 5.34 1145.32S61.06 1114.57 110.69 1114.57S165.54 1111.72 216.03 1111.72S270.16 1124.98 321.37 1124.98S374.26 1140.53 426.72 1140.53S480.34 1116.01 532.06 1116.01S587.28 1162.53 637.4 1162.53S692.2 1097.08 742.75 1097.08S797.16 1157.41 848.09 1157.41S901.97 1119.88 953.44 1119.88S1007.21 1136.37 1058.78 1136.37S1112.44 1095.7 1164.12 1095.7S1217.08 1136.22 1269.47 1136.22S1325.29 1097.54 1374.81 1097.54S1429.7 1142.78 1480.15 1142.78S1534.23 1103.1 1585.5 1103.1S1640.97 1158.2 1690.84 1158.2S1745.06 1160.69 1796.18 1160.69S1848.95 1150.81 1901.53 1150.81S1955.73 1118.82 2006.87 1118.82S2060.2 1155.43 2112.21 1155.43S2165.37 1120.13 2217.56 1120.13S2270.52 1163.75 2322.9 1163.75S2378.32 1095.65 2428.24 1095.65S2483.53 1140.41 2533.59 1140.41S2587.34 1099.97 2638.93 1099.97S2693.36 1162.2 2744.27 1162.2L2660 1336 L-100 1336 Z"></animate>
  <animateTransform attributeName="transform" type="translate" dur="10s" begin="-6s" repeatCount="indefinite" values="0;10;0" calcMode="spline" keySplines="0.3 0 0.7 1;0.3 0 0.7 1"></animateTransform>
</path><path d="M-100 1157.83C-43.64 1134.34 -43.96 1187.91 8.66 1187.91S63.52 1146.99 117.32 1146.99S174.98 1186.21 225.98 1186.21S281.31 1153.81 334.65 1153.81S390.31 1201.81 443.31 1201.81S500.67 1143.6 551.97 1143.6S608.64 1194.11 660.63 1194.11S717.02 1151.18 769.29 1151.18S826.88 1192.79 877.95 1192.79S933.4 1187.84 986.61 1187.84S1041.96 1177.41 1095.28 1177.41S1150.46 1158.73 1203.94 1158.73S1260.52 1179.37 1312.6 1179.37S1366.93 1187.71 1421.26 1187.71S1478.65 1199.43 1529.92 1199.43S1585.46 1150.86 1638.58 1150.86S1693.58 1199.28 1747.24 1199.28S1801.8 1190.53 1855.91 1190.53S1912.61 1183.13 1964.57 1183.13S2019.2 1152.78 2073.23 1152.78S2129.03 1154.29 2181.89 1154.29S2238.24 1157.79 2290.55 1157.79S2348.01 1193.82 2399.21 1193.82S2455.65 1159.61 2507.87 1159.61S2562.47 1180.45 2616.54 1180.45S2672.02 1157.16 2725.2 1157.16L2660 1336 L-100 1336 Z" fill="#4c55cd" stroke-width="0">
  <animate attributeName="d" dur="7.5s" repeatCount="indefinite" values="M-100 1157.83C-43.64 1134.34 -43.96 1187.91 8.66 1187.91S63.52 1146.99 117.32 1146.99S174.98 1186.21 225.98 1186.21S281.31 1153.81 334.65 1153.81S390.31 1201.81 443.31 1201.81S500.67 1143.6 551.97 1143.6S608.64 1194.11 660.63 1194.11S717.02 1151.18 769.29 1151.18S826.88 1192.79 877.95 1192.79S933.4 1187.84 986.61 1187.84S1041.96 1177.41 1095.28 1177.41S1150.46 1158.73 1203.94 1158.73S1260.52 1179.37 1312.6 1179.37S1366.93 1187.71 1421.26 1187.71S1478.65 1199.43 1529.92 1199.43S1585.46 1150.86 1638.58 1150.86S1693.58 1199.28 1747.24 1199.28S1801.8 1190.53 1855.91 1190.53S1912.61 1183.13 1964.57 1183.13S2019.2 1152.78 2073.23 1152.78S2129.03 1154.29 2181.89 1154.29S2238.24 1157.79 2290.55 1157.79S2348.01 1193.82 2399.21 1193.82S2455.65 1159.61 2507.87 1159.61S2562.47 1180.45 2616.54 1180.45S2672.02 1157.16 2725.2 1157.16L2660 1336 L-100 1336 Z;M-100 1131.23C-45.18 1154.9 -43.92 1187.38 8.66 1187.38S66.27 1143.72 117.32 1143.72S173.99 1192 225.98 1192S280.53 1149.08 334.65 1149.08S389.45 1203.41 443.31 1203.41S499.69 1193.26 551.97 1193.26S609.55 1196.26 660.63 1196.26S717.06 1148.97 769.29 1148.97S824.85 1193.54 877.95 1193.54S932.77 1190.28 986.61 1190.28S1043.33 1178.54 1095.28 1178.54S1149.97 1139.13 1203.94 1139.13S1259.08 1198 1312.6 1198S1369.36 1155.8 1421.26 1155.8S1475.8 1192.37 1529.92 1192.37S1584.49 1155.82 1638.58 1155.82S1695.42 1185.47 1747.24 1185.47S1801.94 1155.53 1855.91 1155.53S1910.25 1199.27 1964.57 1199.27S2020.21 1146.92 2073.23 1146.92S2127.88 1186.77 2181.89 1186.77S2238.47 1162.22 2290.55 1162.22S2346.34 1189.17 2399.21 1189.17S2455.75 1147.73 2507.87 1147.73S2564.36 1201.87 2616.54 1201.87S2672.39 1153.92 2725.2 1153.92L2660 1336 L-100 1336 Z;M-100 1157.83C-43.64 1134.34 -43.96 1187.91 8.66 1187.91S63.52 1146.99 117.32 1146.99S174.98 1186.21 225.98 1186.21S281.31 1153.81 334.65 1153.81S390.31 1201.81 443.31 1201.81S500.67 1143.6 551.97 1143.6S608.64 1194.11 660.63 1194.11S717.02 1151.18 769.29 1151.18S826.88 1192.79 877.95 1192.79S933.4 1187.84 986.61 1187.84S1041.96 1177.41 1095.28 1177.41S1150.46 1158.73 1203.94 1158.73S1260.52 1179.37 1312.6 1179.37S1366.93 1187.71 1421.26 1187.71S1478.65 1199.43 1529.92 1199.43S1585.46 1150.86 1638.58 1150.86S1693.58 1199.28 1747.24 1199.28S1801.8 1190.53 1855.91 1190.53S1912.61 1183.13 1964.57 1183.13S2019.2 1152.78 2073.23 1152.78S2129.03 1154.29 2181.89 1154.29S2238.24 1157.79 2290.55 1157.79S2348.01 1193.82 2399.21 1193.82S2455.65 1159.61 2507.87 1159.61S2562.47 1180.45 2616.54 1180.45S2672.02 1157.16 2725.2 1157.16L2660 1336 L-100 1336 Z"></animate>
  <animateTransform attributeName="transform" type="translate" dur="7.5s" begin="-5.25s" repeatCount="indefinite" values="0;10;0" calcMode="spline" keySplines="0.3 0 0.7 1;0.3 0 0.7 1"></animateTransform>
</path><path d="M-100 1191.5C-42.98 1186.68 -42.82 1234.95 12.2 1234.95S69.47 1165.03 124.39 1165.03S183.05 1244.3 236.59 1244.3S293.32 1194.76 348.78 1194.76S407.52 1237.17 460.98 1237.17S517.38 1176.7 573.17 1176.7S632.41 1239.57 685.37 1239.57S741.89 1163.31 797.56 1163.31S854.69 1244.9 909.76 1244.9S968.87 1170.4 1021.95 1170.4S1079.7 1224.99 1134.15 1224.99S1192.18 1180.41 1246.34 1180.41S1304.57 1241.51 1358.54 1241.51S1417.22 1167.2 1470.73 1167.2S1529.11 1237.09 1582.93 1237.09S1640.5 1194.87 1695.12 1194.87S1752.57 1167.6 1807.32 1167.6S1864.99 1192.98 1919.51 1192.98S1978.39 1216.47 2031.71 1216.47S2091.08 1172.74 2143.9 1172.74S2200.82 1239.12 2256.1 1239.12S2315.06 1165.2 2368.29 1165.2S2425.47 1166.67 2480.49 1166.67S2538.41 1188.77 2592.68 1188.77S2651.03 1171.59 2704.88 1171.59L2660 1336 L-100 1336 Z" fill="#5f56df" stroke-width="0">
  <animate attributeName="d" dur="5s" repeatCount="indefinite" values="M-100 1191.5C-42.98 1186.68 -42.82 1234.95 12.2 1234.95S69.47 1165.03 124.39 1165.03S183.05 1244.3 236.59 1244.3S293.32 1194.76 348.78 1194.76S407.52 1237.17 460.98 1237.17S517.38 1176.7 573.17 1176.7S632.41 1239.57 685.37 1239.57S741.89 1163.31 797.56 1163.31S854.69 1244.9 909.76 1244.9S968.87 1170.4 1021.95 1170.4S1079.7 1224.99 1134.15 1224.99S1192.18 1180.41 1246.34 1180.41S1304.57 1241.51 1358.54 1241.51S1417.22 1167.2 1470.73 1167.2S1529.11 1237.09 1582.93 1237.09S1640.5 1194.87 1695.12 1194.87S1752.57 1167.6 1807.32 1167.6S1864.99 1192.98 1919.51 1192.98S1978.39 1216.47 2031.71 1216.47S2091.08 1172.74 2143.9 1172.74S2200.82 1239.12 2256.1 1239.12S2315.06 1165.2 2368.29 1165.2S2425.47 1166.67 2480.49 1166.67S2538.41 1188.77 2592.68 1188.77S2651.03 1171.59 2704.88 1171.59L2660 1336 L-100 1336 Z;M-100 1232.07C-43.41 1224.59 -41.75 1164.4 12.2 1164.4S69.66 1181.21 124.39 1181.21S182.83 1191.88 236.59 1191.88S295.02 1167.12 348.78 1167.12S407.21 1232.25 460.98 1232.25S519.7 1165.82 573.17 1165.82S629.8 1193.19 685.37 1193.19S744.4 1177.21 797.56 1177.21S855.81 1194.81 909.76 1194.81S967.18 1173.29 1021.95 1173.29S1079 1231.04 1134.15 1231.04S1192.99 1182.91 1246.34 1182.91S1305.07 1248.92 1358.54 1248.92S1417.26 1165.42 1470.73 1165.42S1527.04 1235.47 1582.93 1235.47S1641.71 1169.07 1695.12 1169.07S1753.86 1239.18 1807.32 1239.18S1865.43 1192.51 1919.51 1192.51S1977.93 1239.3 2031.71 1239.3S2090.98 1175.85 2143.9 1175.85S2201.63 1240.34 2256.1 1240.34S2312.23 1185.81 2368.29 1185.81S2427.49 1185.08 2480.49 1185.08S2538.01 1168.93 2592.68 1168.93S2650.99 1234.7 2704.88 1234.7L2660 1336 L-100 1336 Z;M-100 1191.5C-42.98 1186.68 -42.82 1234.95 12.2 1234.95S69.47 1165.03 124.39 1165.03S183.05 1244.3 236.59 1244.3S293.32 1194.76 348.78 1194.76S407.52 1237.17 460.98 1237.17S517.38 1176.7 573.17 1176.7S632.41 1239.57 685.37 1239.57S741.89 1163.31 797.56 1163.31S854.69 1244.9 909.76 1244.9S968.87 1170.4 1021.95 1170.4S1079.7 1224.99 1134.15 1224.99S1192.18 1180.41 1246.34 1180.41S1304.57 1241.51 1358.54 1241.51S1417.22 1167.2 1470.73 1167.2S1529.11 1237.09 1582.93 1237.09S1640.5 1194.87 1695.12 1194.87S1752.57 1167.6 1807.32 1167.6S1864.99 1192.98 1919.51 1192.98S1978.39 1216.47 2031.71 1216.47S2091.08 1172.74 2143.9 1172.74S2200.82 1239.12 2256.1 1239.12S2315.06 1165.2 2368.29 1165.2S2425.47 1166.67 2480.49 1166.67S2538.41 1188.77 2592.68 1188.77S2651.03 1171.59 2704.88 1171.59L2660 1336 L-100 1336 Z"></animate>
  <animateTransform attributeName="transform" type="translate" dur="5s" begin="-4s" repeatCount="indefinite" values="0;10;0" calcMode="spline" keySplines="0.3 0 0.7 1;0.3 0 0.7 1"></animateTransform>
</path><path d="M-100 1206.75C-39.61 1208.86 -41.43 1216.68 15.97 1216.68S74.78 1225.48 131.93 1225.48S191.78 1277.17 247.9 1277.17S307.64 1202.47 363.87 1202.47S424.49 1277.49 479.83 1277.49S539.85 1222.71 595.8 1222.71S656.89 1258.67 711.76 1258.67S771.28 1220.58 827.73 1220.58S886.45 1259.17 943.7 1259.17S1002.75 1206.91 1059.66 1206.91S1119.73 1261.01 1175.63 1261.01S1236 1224.48 1291.6 1224.48S1351.1 1258.47 1407.56 1258.47S1467.12 1228.5 1523.53 1228.5S1582.23 1270.87 1639.5 1270.87S1699.15 1219.48 1755.46 1219.48S1815.95 1268.22 1871.43 1268.22S1930.69 1284.5 1987.39 1284.5S2048.71 1281.35 2103.36 1281.35S2164.29 1225.67 2219.33 1225.67S2279.76 1274.46 2335.29 1274.46S2395.01 1222.06 2451.26 1222.06S2509.79 1198.02 2567.23 1198.02S2625.55 1220.22 2683.19 1220.22L2660 1336 L-100 1336 Z" fill="#7455f0" stroke-width="0">
  <animate attributeName="d" dur="2.5s" repeatCount="indefinite" values="M-100 1206.75C-39.61 1208.86 -41.43 1216.68 15.97 1216.68S74.78 1225.48 131.93 1225.48S191.78 1277.17 247.9 1277.17S307.64 1202.47 363.87 1202.47S424.49 1277.49 479.83 1277.49S539.85 1222.71 595.8 1222.71S656.89 1258.67 711.76 1258.67S771.28 1220.58 827.73 1220.58S886.45 1259.17 943.7 1259.17S1002.75 1206.91 1059.66 1206.91S1119.73 1261.01 1175.63 1261.01S1236 1224.48 1291.6 1224.48S1351.1 1258.47 1407.56 1258.47S1467.12 1228.5 1523.53 1228.5S1582.23 1270.87 1639.5 1270.87S1699.15 1219.48 1755.46 1219.48S1815.95 1268.22 1871.43 1268.22S1930.69 1284.5 1987.39 1284.5S2048.71 1281.35 2103.36 1281.35S2164.29 1225.67 2219.33 1225.67S2279.76 1274.46 2335.29 1274.46S2395.01 1222.06 2451.26 1222.06S2509.79 1198.02 2567.23 1198.02S2625.55 1220.22 2683.19 1220.22L2660 1336 L-100 1336 Z;M-100 1222.14C-39.09 1213.73 -38.72 1276.38 15.97 1276.38S75.28 1224.8 131.93 1224.8S192.88 1204.53 247.9 1204.53S307.2 1196.84 363.87 1196.84S422.22 1276.3 479.83 1276.3S538.23 1217.98 595.8 1217.98S655.51 1285.44 711.76 1285.44S770.96 1215.84 827.73 1215.84S887.74 1277.61 943.7 1277.61S1001.79 1207.35 1059.66 1207.35S1120.24 1263.37 1175.63 1263.37S1234.51 1197.63 1291.6 1197.63S1351.18 1264.75 1407.56 1264.75S1466.82 1196.94 1523.53 1196.94S1584.79 1287.59 1639.5 1287.59S1699.75 1224.15 1755.46 1224.15S1815.91 1277.16 1871.43 1277.16S1931.48 1278.44 1987.39 1278.44S2047.19 1288.66 2103.36 1288.66S2161.63 1195.97 2219.33 1195.97S2279.24 1263.67 2335.29 1263.67S2393.98 1202.82 2451.26 1202.82S2512.38 1261.54 2567.23 1261.54S2627.52 1225.44 2683.19 1225.44L2660 1336 L-100 1336 Z;M-100 1206.75C-39.61 1208.86 -41.43 1216.68 15.97 1216.68S74.78 1225.48 131.93 1225.48S191.78 1277.17 247.9 1277.17S307.64 1202.47 363.87 1202.47S424.49 1277.49 479.83 1277.49S539.85 1222.71 595.8 1222.71S656.89 1258.67 711.76 1258.67S771.28 1220.58 827.73 1220.58S886.45 1259.17 943.7 1259.17S1002.75 1206.91 1059.66 1206.91S1119.73 1261.01 1175.63 1261.01S1236 1224.48 1291.6 1224.48S1351.1 1258.47 1407.56 1258.47S1467.12 1228.5 1523.53 1228.5S1582.23 1270.87 1639.5 1270.87S1699.15 1219.48 1755.46 1219.48S1815.95 1268.22 1871.43 1268.22S1930.69 1284.5 1987.39 1284.5S2048.71 1281.35 2103.36 1281.35S2164.29 1225.67 2219.33 1225.67S2279.76 1274.46 2335.29 1274.46S2395.01 1222.06 2451.26 1222.06S2509.79 1198.02 2567.23 1198.02S2625.55 1220.22 2683.19 1220.22L2660 1336 L-100 1336 Z"></animate>
  <animateTransform attributeName="transform" type="translate" dur="2.5s" begin="-2.25s" repeatCount="indefinite" values="0;10;0" calcMode="spline" keySplines="0.3 0 0.7 1;0.3 0 0.7 1"></animateTransform>
</path></g>
</svg>